<svg class="hero-art" viewBox="0 0 640 520" role="img" aria-label="Abstract illustration: revenue paths of batteries that start at the same point and end far apart">
  <defs>
    <linearGradient id="g1" x1="0" x2="1"><stop offset="0" stop-color="#97F1F4" stop-opacity=".2"/><stop offset="1" stop-color="#97F1F4"/></linearGradient>
    <linearGradient id="g2" x1="0" x2="1"><stop offset="0" stop-color="#97F1F4" stop-opacity=".2"/><stop offset="1" stop-color="#D392EB"/></linearGradient>
    <radialGradient id="glow"><stop offset="0" stop-color="#97F1F4" stop-opacity=".55"/><stop offset="1" stop-color="#97F1F4" stop-opacity="0"/></radialGradient>
  </defs>
  <circle cx="40" cy="260" r="70" fill="url(#glow)"/>
  <path d="M40.0 260.0 L54.0 260.2 L68.0 259.7 L82.0 258.6 L96.0 256.8 L110.0 254.3 L124.0 251.3 L138.0 247.6 L152.0 243.5 L166.0 238.8 L180.0 233.8 L194.0 228.5 L208.0 222.9 L222.0 217.3 L236.0 211.7 L250.0 206.2 L264.0 201.0 L278.0 196.1 L292.0 191.5 L306.0 187.4 L320.0 183.8 L334.0 180.6 L348.0 178.0 L362.0 175.7 L376.0 173.8 L390.0 172.1 L404.0 170.6 L418.0 169.1 L432.0 167.4 L446.0 165.4 L460.0 163.0 L474.0 160.0 L488.0 156.2 L502.0 151.5 L516.0 145.8 L530.0 138.9 L544.0 131.0 L558.0 121.8 L572.0 111.5 L586.0 100.0 L600.0 87.5" stroke="url(#g2)" stroke-width="2.2" fill="none" opacity="0.18"/><circle cx="600.0" cy="87.5" r="4" fill="#D392EB" opacity="0.43"/><path d="M40.0 260.0 L54.0 260.3 L68.0 260.3 L82.0 259.9 L96.0 259.2 L110.0 258.1 L124.0 256.6 L138.0 254.6 L152.0 252.0 L166.0 248.8 L180.0 245.1 L194.0 240.7 L208.0 235.8 L222.0 230.4 L236.0 224.6 L250.0 218.3 L264.0 211.8 L278.0 205.1 L292.0 198.3 L306.0 191.6 L320.0 185.0 L334.0 178.7 L348.0 172.8 L362.0 167.4 L376.0 162.5 L390.0 158.3 L404.0 154.6 L418.0 151.5 L432.0 149.1 L446.0 147.1 L460.0 145.6 L474.0 144.3 L488.0 143.3 L502.0 142.3 L516.0 141.1 L530.0 139.6 L544.0 137.7 L558.0 135.0 L572.0 131.6 L586.0 127.1 L600.0 121.6" stroke="url(#g1)" stroke-width="1.2" fill="none" opacity="0.18"/><circle cx="600.0" cy="121.6" r="2.5" fill="#97F1F4" opacity="0.43"/><path d="M40.0 260.0 L54.0 258.8 L68.0 257.0 L82.0 254.9 L96.0 252.5 L110.0 250.0 L124.0 247.6 L138.0 245.1 L152.0 242.8 L166.0 240.7 L180.0 238.7 L194.0 237.0 L208.0 235.5 L222.0 234.2 L236.0 233.0 L250.0 231.8 L264.0 230.7 L278.0 229.4 L292.0 227.9 L306.0 226.2 L320.0 223.9 L334.0 221.2 L348.0 217.8 L362.0 213.7 L376.0 208.9 L390.0 203.2 L404.0 196.8 L418.0 189.5 L432.0 181.4 L446.0 172.6 L460.0 163.2 L474.0 153.3 L488.0 142.9 L502.0 132.4 L516.0 121.7 L530.0 111.2 L544.0 100.9 L558.0 91.1 L572.0 81.8 L586.0 73.3 L600.0 65.6" stroke="url(#g1)" stroke-width="1.2" fill="none" opacity="0.19"/><circle cx="600.0" cy="65.6" r="2.5" fill="#97F1F4" opacity="0.44"/><path d="M40.0 260.0 L54.0 260.1 L68.0 260.0 L82.0 259.8 L96.0 259.4 L110.0 258.8 L124.0 258.0 L138.0 256.9 L152.0 255.4 L166.0 253.5 L180.0 251.1 L194.0 248.2 L208.0 244.7 L222.0 240.7 L236.0 236.2 L250.0 231.1 L264.0 225.6 L278.0 219.8 L292.0 213.6 L306.0 207.3 L320.0 200.8 L334.0 194.4 L348.0 188.1 L362.0 182.1 L376.0 176.4 L390.0 171.2 L404.0 166.5 L418.0 162.4 L432.0 159.0 L446.0 156.1 L460.0 153.9 L474.0 152.3 L488.0 151.1 L502.0 150.4 L516.0 150.0 L530.0 149.7 L544.0 149.4 L558.0 149.0 L572.0 148.2 L586.0 146.9 L600.0 144.9" stroke="url(#g2)" stroke-width="1.2" fill="none" opacity="0.21"/><circle cx="600.0" cy="144.9" r="2.5" fill="#D392EB" opacity="0.46"/><path d="M40.0 260.0 L54.0 259.3 L68.0 258.1 L82.0 256.3 L96.0 254.2 L110.0 251.9 L124.0 249.3 L138.0 246.6 L152.0 243.8 L166.0 241.2 L180.0 238.6 L194.0 236.2 L208.0 234.1 L222.0 232.2 L236.0 230.6 L250.0 229.3 L264.0 228.3 L278.0 227.4 L292.0 226.7 L306.0 226.1 L320.0 225.5 L334.0 224.8 L348.0 223.8 L362.0 222.5 L376.0 220.8 L390.0 218.6 L404.0 215.7 L418.0 212.1 L432.0 207.8 L446.0 202.6 L460.0 196.6 L474.0 189.9 L488.0 182.3 L502.0 174.1 L516.0 165.3 L530.0 155.9 L544.0 146.2 L558.0 136.3 L572.0 126.4 L586.0 116.5 L600.0 107.0" stroke="url(#g1)" stroke-width="2.2" fill="none" opacity="0.23"/><circle cx="600.0" cy="107.0" r="4" fill="#97F1F4" opacity="0.48"/><path d="M40.0 260.0 L54.0 260.2 L68.0 259.8 L82.0 258.9 L96.0 257.6 L110.0 255.8 L124.0 253.7 L138.0 251.1 L152.0 248.2 L166.0 245.1 L180.0 241.8 L194.0 238.4 L208.0 234.9 L222.0 231.5 L236.0 228.2 L250.0 225.2 L264.0 222.4 L278.0 220.0 L292.0 217.9 L306.0 216.1 L320.0 214.8 L334.0 213.8 L348.0 213.2 L362.0 212.8 L376.0 212.5 L390.0 212.4 L404.0 212.2 L418.0 211.9 L432.0 211.4 L446.0 210.4 L460.0 209.0 L474.0 207.0 L488.0 204.2 L502.0 200.7 L516.0 196.3 L530.0 191.1 L544.0 184.9 L558.0 178.0 L572.0 170.1 L586.0 161.6 L600.0 152.4" stroke="url(#g1)" stroke-width="1.2" fill="none" opacity="0.26"/><circle cx="600.0" cy="152.4" r="2.5" fill="#97F1F4" opacity="0.51"/><path d="M40.0 260.0 L54.0 260.1 L68.0 260.1 L82.0 260.1 L96.0 260.0 L110.0 259.8 L124.0 259.5 L138.0 258.9 L152.0 258.1 L166.0 256.9 L180.0 255.4 L194.0 253.5 L208.0 251.1 L222.0 248.3 L236.0 245.1 L250.0 241.4 L264.0 237.3 L278.0 232.9 L292.0 228.3 L306.0 223.4 L320.0 218.5 L334.0 213.5 L348.0 208.7 L362.0 204.0 L376.0 199.7 L390.0 195.7 L404.0 192.1 L418.0 189.1 L432.0 186.6 L446.0 184.7 L460.0 183.4 L474.0 182.6 L488.0 182.2 L502.0 182.3 L516.0 182.8 L530.0 183.4 L544.0 184.1 L558.0 184.8 L572.0 185.3 L586.0 185.4 L600.0 185.0" stroke="url(#g2)" stroke-width="1.2" fill="none" opacity="0.30"/><circle cx="600.0" cy="185.0" r="2.5" fill="#D392EB" opacity="0.55"/><path d="M40.0 260.0 L54.0 259.6 L68.0 258.8 L82.0 257.6 L96.0 256.1 L110.0 254.4 L124.0 252.4 L138.0 250.4 L152.0 248.3 L166.0 246.3 L180.0 244.3 L194.0 242.6 L208.0 241.0 L222.0 239.6 L236.0 238.5 L250.0 237.8 L264.0 237.2 L278.0 237.0 L292.0 236.9 L306.0 237.0 L320.0 237.2 L334.0 237.3 L348.0 237.4 L362.0 237.4 L376.0 237.0 L390.0 236.3 L404.0 235.2 L418.0 233.5 L432.0 231.2 L446.0 228.3 L460.0 224.7 L474.0 220.4 L488.0 215.4 L502.0 209.8 L516.0 203.6 L530.0 196.9 L544.0 189.8 L558.0 182.3 L572.0 174.7 L586.0 167.1 L600.0 159.7" stroke="url(#g1)" stroke-width="1.2" fill="none" opacity="0.34"/><circle cx="600.0" cy="159.7" r="2.5" fill="#97F1F4" opacity="0.59"/><path d="M40.0 260.0 L54.0 260.1 L68.0 260.1 L82.0 260.2 L96.0 260.3 L110.0 260.4 L124.0 260.3 L138.0 260.2 L152.0 259.8 L166.0 259.2 L180.0 258.4 L194.0 257.2 L208.0 255.6 L222.0 253.7 L236.0 251.4 L250.0 248.7 L264.0 245.6 L278.0 242.3 L292.0 238.6 L306.0 234.8 L320.0 230.9 L334.0 226.9 L348.0 222.9 L362.0 219.1 L376.0 215.5 L390.0 212.2 L404.0 209.3 L418.0 206.8 L432.0 204.8 L446.0 203.4 L460.0 202.5 L474.0 202.1 L488.0 202.1 L502.0 202.7 L516.0 203.6 L530.0 204.8 L544.0 206.1 L558.0 207.5 L572.0 208.9 L586.0 210.0 L600.0 210.8" stroke="url(#g1)" stroke-width="2.2" fill="none" opacity="0.38"/><circle cx="600.0" cy="210.8" r="4" fill="#97F1F4" opacity="0.63"/><path d="M40.0 260.0 L54.0 260.0 L68.0 259.6 L82.0 259.0 L96.0 258.0 L110.0 256.8 L124.0 255.4 L138.0 253.8 L152.0 252.1 L166.0 250.3 L180.0 248.5 L194.0 246.8 L208.0 245.2 L222.0 243.8 L236.0 242.6 L250.0 241.6 L264.0 241.0 L278.0 240.6 L292.0 240.6 L306.0 240.8 L320.0 241.2 L334.0 241.9 L348.0 242.7 L362.0 243.5 L376.0 244.4 L390.0 245.1 L404.0 245.6 L418.0 245.9 L432.0 245.8 L446.0 245.2 L460.0 244.1 L474.0 242.4 L488.0 240.2 L502.0 237.3 L516.0 233.7 L530.0 229.6 L544.0 224.9 L558.0 219.6 L572.0 214.0 L586.0 208.0 L600.0 201.8" stroke="url(#g2)" stroke-width="1.2" fill="none" opacity="0.44"/><circle cx="600.0" cy="201.8" r="2.5" fill="#D392EB" opacity="0.69"/><path d="M40.0 260.0 L54.0 260.2 L68.0 260.5 L82.0 260.7 L96.0 261.0 L110.0 261.3 L124.0 261.5 L138.0 261.5 L152.0 261.4 L166.0 261.0 L180.0 260.4 L194.0 259.5 L208.0 258.3 L222.0 256.9 L236.0 255.1 L250.0 253.0 L264.0 250.7 L278.0 248.2 L292.0 245.5 L306.0 242.7 L320.0 239.9 L334.0 237.2 L348.0 234.6 L362.0 232.2 L376.0 230.1 L390.0 228.4 L404.0 227.0 L418.0 226.0 L432.0 225.5 L446.0 225.5 L460.0 225.9 L474.0 226.7 L488.0 228.0 L502.0 229.5 L516.0 231.3 L530.0 233.2 L544.0 235.2 L558.0 237.1 L572.0 238.8 L586.0 240.2 L600.0 241.3" stroke="url(#g1)" stroke-width="1.2" fill="none" opacity="0.50"/><circle cx="600.0" cy="241.3" r="2.5" fill="#97F1F4" opacity="0.75"/><path d="M40.0 260.0 L54.0 260.3 L68.0 260.6 L82.0 261.0 L96.0 261.4 L110.0 261.7 L124.0 262.0 L138.0 262.1 L152.0 262.1 L166.0 261.8 L180.0 261.3 L194.0 260.6 L208.0 259.6 L222.0 258.3 L236.0 256.8 L250.0 255.1 L264.0 253.2 L278.0 251.1 L292.0 248.9 L306.0 246.7 L320.0 244.6 L334.0 242.5 L348.0 240.7 L362.0 239.0 L376.0 237.7 L390.0 236.7 L404.0 236.1 L418.0 235.9 L432.0 236.2 L446.0 236.8 L460.0 237.9 L474.0 239.3 L488.0 241.1 L502.0 243.1 L516.0 245.2 L530.0 247.4 L544.0 249.7 L558.0 251.7 L572.0 253.6 L586.0 255.1 L600.0 256.2" stroke="url(#g1)" stroke-width="1.2" fill="none" opacity="0.57"/><circle cx="600.0" cy="256.2" r="2.5" fill="#97F1F4" opacity="0.82"/><path d="M40.0 260.0 L54.0 260.1 L68.0 260.1 L82.0 259.8 L96.0 259.4 L110.0 258.8 L124.0 258.1 L138.0 257.3 L152.0 256.5 L166.0 255.6 L180.0 254.7 L194.0 253.9 L208.0 253.3 L222.0 252.8 L236.0 252.5 L250.0 252.4 L264.0 252.6 L278.0 253.1 L292.0 253.8 L306.0 254.8 L320.0 256.0 L334.0 257.4 L348.0 259.0 L362.0 260.7 L376.0 262.4 L390.0 264.0 L404.0 265.6 L418.0 267.0 L432.0 268.1 L446.0 268.9 L460.0 269.3 L474.0 269.3 L488.0 268.8 L502.0 267.9 L516.0 266.5 L530.0 264.6 L544.0 262.2 L558.0 259.5 L572.0 256.4 L586.0 253.0 L600.0 249.5" stroke="url(#g2)" stroke-width="2.2" fill="none" opacity="0.64"/><circle cx="600.0" cy="249.5" r="4" fill="#D392EB" opacity="0.89"/><path d="M40.0 260.0 L54.0 259.6 L68.0 259.4 L82.0 259.4 L96.0 259.5 L110.0 259.8 L124.0 260.2 L138.0 260.9 L152.0 261.7 L166.0 262.6 L180.0 263.6 L194.0 264.7 L208.0 265.8 L222.0 266.9 L236.0 267.8 L250.0 268.6 L264.0 269.2 L278.0 269.6 L292.0 269.7 L306.0 269.6 L320.0 269.1 L334.0 268.3 L348.0 267.2 L362.0 265.9 L376.0 264.3 L390.0 262.5 L404.0 260.6 L418.0 258.7 L432.0 256.8 L446.0 254.9 L460.0 253.3 L474.0 251.9 L488.0 250.8 L502.0 250.2 L516.0 249.9 L530.0 250.2 L544.0 251.0 L558.0 252.3 L572.0 254.1 L586.0 256.5 L600.0 259.3" stroke="url(#g1)" stroke-width="1.2" fill="none" opacity="0.64"/><circle cx="600.0" cy="259.3" r="2.5" fill="#97F1F4" opacity="0.89"/><path d="M40.0 260.0 L54.0 260.5 L68.0 261.1 L82.0 261.8 L96.0 262.6 L110.0 263.4 L124.0 264.1 L138.0 264.7 L152.0 265.1 L166.0 265.4 L180.0 265.5 L194.0 265.4 L208.0 265.1 L222.0 264.6 L236.0 263.9 L250.0 263.0 L264.0 262.1 L278.0 261.1 L292.0 260.1 L306.0 259.2 L320.0 258.5 L334.0 257.9 L348.0 257.6 L362.0 257.7 L376.0 258.1 L390.0 258.9 L404.0 260.2 L418.0 261.9 L432.0 264.0 L446.0 266.6 L460.0 269.6 L474.0 272.8 L488.0 276.3 L502.0 280.0 L516.0 283.8 L530.0 287.6 L544.0 291.3 L558.0 294.8 L572.0 297.9 L586.0 300.7 L600.0 302.9" stroke="url(#g1)" stroke-width="1.2" fill="none" opacity="0.57"/><circle cx="600.0" cy="302.9" r="2.5" fill="#97F1F4" opacity="0.82"/><path d="M40.0 260.0 L54.0 260.7 L68.0 261.4 L82.0 262.2 L96.0 262.9 L110.0 263.5 L124.0 264.0 L138.0 264.3 L152.0 264.4 L166.0 264.4 L180.0 264.2 L194.0 263.8 L208.0 263.4 L222.0 262.8 L236.0 262.2 L250.0 261.7 L264.0 261.2 L278.0 261.0 L292.0 260.9 L306.0 261.1 L320.0 261.7 L334.0 262.6 L348.0 263.9 L362.0 265.7 L376.0 267.9 L390.0 270.6 L404.0 273.7 L418.0 277.1 L432.0 280.8 L446.0 284.8 L460.0 288.9 L474.0 293.1 L488.0 297.2 L502.0 301.2 L516.0 305.0 L530.0 308.4 L544.0 311.4 L558.0 313.9 L572.0 315.8 L586.0 317.1 L600.0 317.7" stroke="url(#g2)" stroke-width="1.2" fill="none" opacity="0.50"/><circle cx="600.0" cy="317.7" r="2.5" fill="#D392EB" opacity="0.75"/><path d="M40.0 260.0 L54.0 259.7 L68.0 259.4 L82.0 259.1 L96.0 259.0 L110.0 259.0 L124.0 259.1 L138.0 259.5 L152.0 260.2 L166.0 261.1 L180.0 262.4 L194.0 264.0 L208.0 265.9 L222.0 268.1 L236.0 270.6 L250.0 273.3 L264.0 276.2 L278.0 279.2 L292.0 282.2 L306.0 285.2 L320.0 288.1 L334.0 290.9 L348.0 293.3 L362.0 295.5 L376.0 297.3 L390.0 298.6 L404.0 299.5 L418.0 300.0 L432.0 300.0 L446.0 299.6 L460.0 298.8 L474.0 297.7 L488.0 296.3 L502.0 294.9 L516.0 293.3 L530.0 291.9 L544.0 290.7 L558.0 289.7 L572.0 289.2 L586.0 289.2 L600.0 289.8" stroke="url(#g1)" stroke-width="2.2" fill="none" opacity="0.44"/><circle cx="600.0" cy="289.8" r="4" fill="#97F1F4" opacity="0.69"/><path d="M40.0 260.0 L54.0 260.1 L68.0 260.6 L82.0 261.4 L96.0 262.6 L110.0 264.1 L124.0 265.7 L138.0 267.6 L152.0 269.6 L166.0 271.6 L180.0 273.7 L194.0 275.6 L208.0 277.4 L222.0 279.0 L236.0 280.4 L250.0 281.5 L264.0 282.3 L278.0 282.8 L292.0 283.1 L306.0 283.0 L320.0 282.7 L334.0 282.3 L348.0 281.8 L362.0 281.2 L376.0 280.7 L390.0 280.4 L404.0 280.4 L418.0 280.6 L432.0 281.4 L446.0 282.6 L460.0 284.5 L474.0 286.9 L488.0 290.1 L502.0 293.9 L516.0 298.3 L530.0 303.5 L544.0 309.1 L558.0 315.3 L572.0 321.9 L586.0 328.8 L600.0 335.8" stroke="url(#g1)" stroke-width="1.2" fill="none" opacity="0.38"/><circle cx="600.0" cy="335.8" r="2.5" fill="#97F1F4" opacity="0.63"/><path d="M40.0 260.0 L54.0 259.8 L68.0 259.7 L82.0 259.6 L96.0 259.6 L110.0 259.7 L124.0 260.0 L138.0 260.5 L152.0 261.2 L166.0 262.3 L180.0 263.7 L194.0 265.5 L208.0 267.7 L222.0 270.4 L236.0 273.4 L250.0 276.7 L264.0 280.4 L278.0 284.4 L292.0 288.6 L306.0 292.9 L320.0 297.2 L334.0 301.4 L348.0 305.5 L362.0 309.4 L376.0 312.9 L390.0 316.1 L404.0 318.8 L418.0 321.0 L432.0 322.6 L446.0 323.7 L460.0 324.4 L474.0 324.5 L488.0 324.2 L502.0 323.6 L516.0 322.7 L530.0 321.7 L544.0 320.8 L558.0 319.9 L572.0 319.3 L586.0 319.2 L600.0 319.6" stroke="url(#g2)" stroke-width="1.2" fill="none" opacity="0.34"/><circle cx="600.0" cy="319.6" r="2.5" fill="#D392EB" opacity="0.59"/><path d="M40.0 260.0 L54.0 260.6 L68.0 261.2 L82.0 261.8 L96.0 262.4 L110.0 262.8 L124.0 263.1 L138.0 263.4 L152.0 263.7 L166.0 264.1 L180.0 264.5 L194.0 265.1 L208.0 266.0 L222.0 267.1 L236.0 268.7 L250.0 270.6 L264.0 273.1 L278.0 276.0 L292.0 279.5 L306.0 283.5 L320.0 287.9 L334.0 292.8 L348.0 298.1 L362.0 303.7 L376.0 309.6 L390.0 315.5 L404.0 321.5 L418.0 327.4 L432.0 333.1 L446.0 338.4 L460.0 343.3 L474.0 347.7 L488.0 351.5 L502.0 354.7 L516.0 357.2 L530.0 359.0 L544.0 360.2 L558.0 360.7 L572.0 360.7 L586.0 360.2 L600.0 359.4" stroke="url(#g1)" stroke-width="1.2" fill="none" opacity="0.30"/><circle cx="600.0" cy="359.4" r="2.5" fill="#97F1F4" opacity="0.55"/><path d="M40.0 260.0 L54.0 260.3 L68.0 261.2 L82.0 262.6 L96.0 264.4 L110.0 266.6 L124.0 269.0 L138.0 271.6 L152.0 274.3 L166.0 277.1 L180.0 279.9 L194.0 282.6 L208.0 285.1 L222.0 287.3 L236.0 289.3 L250.0 291.0 L264.0 292.3 L278.0 293.4 L292.0 294.2 L306.0 294.8 L320.0 295.1 L334.0 295.4 L348.0 295.7 L362.0 296.1 L376.0 296.7 L390.0 297.7 L404.0 299.0 L418.0 300.9 L432.0 303.4 L446.0 306.6 L460.0 310.6 L474.0 315.4 L488.0 320.9 L502.0 327.3 L516.0 334.4 L530.0 342.2 L544.0 350.6 L558.0 359.5 L572.0 368.8 L586.0 378.3 L600.0 387.8" stroke="url(#g1)" stroke-width="2.2" fill="none" opacity="0.26"/><circle cx="600.0" cy="387.8" r="4" fill="#97F1F4" opacity="0.51"/><path d="M40.0 260.0 L54.0 260.7 L68.0 262.0 L82.0 263.8 L96.0 265.9 L110.0 268.3 L124.0 270.8 L138.0 273.5 L152.0 276.1 L166.0 278.7 L180.0 281.2 L194.0 283.4 L208.0 285.5 L222.0 287.2 L236.0 288.7 L250.0 289.9 L264.0 290.9 L278.0 291.7 L292.0 292.3 L306.0 292.9 L320.0 293.6 L334.0 294.4 L348.0 295.5 L362.0 296.9 L376.0 298.8 L390.0 301.3 L404.0 304.4 L418.0 308.2 L432.0 312.8 L446.0 318.2 L460.0 324.4 L474.0 331.4 L488.0 339.2 L502.0 347.6 L516.0 356.5 L530.0 365.9 L544.0 375.6 L558.0 385.5 L572.0 395.4 L586.0 405.0 L600.0 414.4" stroke="url(#g2)" stroke-width="1.2" fill="none" opacity="0.23"/><circle cx="600.0" cy="414.4" r="2.5" fill="#D392EB" opacity="0.48"/><path d="M40.0 260.0 L54.0 259.8 L68.0 260.3 L82.0 261.4 L96.0 263.0 L110.0 265.1 L124.0 267.7 L138.0 270.7 L152.0 274.1 L166.0 277.9 L180.0 281.9 L194.0 286.0 L208.0 290.3 L222.0 294.5 L236.0 298.5 L250.0 302.4 L264.0 306.0 L278.0 309.3 L292.0 312.1 L306.0 314.6 L320.0 316.7 L334.0 318.3 L348.0 319.6 L362.0 320.7 L376.0 321.5 L390.0 322.2 L404.0 322.9 L418.0 323.7 L432.0 324.8 L446.0 326.3 L460.0 328.4 L474.0 331.1 L488.0 334.6 L502.0 338.9 L516.0 344.2 L530.0 350.4 L544.0 357.7 L558.0 365.9 L572.0 375.0 L586.0 385.1 L600.0 395.8" stroke="url(#g1)" stroke-width="1.2" fill="none" opacity="0.21"/><circle cx="600.0" cy="395.8" r="2.5" fill="#97F1F4" opacity="0.46"/><path d="M40.0 260.0 L54.0 261.2 L68.0 262.8 L82.0 264.4 L96.0 266.1 L110.0 267.7 L124.0 269.1 L138.0 270.5 L152.0 271.7 L166.0 272.9 L180.0 273.9 L194.0 275.0 L208.0 276.1 L222.0 277.4 L236.0 278.9 L250.0 280.8 L264.0 283.0 L278.0 285.8 L292.0 289.2 L306.0 293.2 L320.0 297.9 L334.0 303.4 L348.0 309.6 L362.0 316.4 L376.0 324.0 L390.0 332.1 L404.0 340.8 L418.0 349.8 L432.0 359.1 L446.0 368.5 L460.0 377.9 L474.0 387.2 L488.0 396.0 L502.0 404.5 L516.0 412.3 L530.0 419.3 L544.0 425.6 L558.0 431.0 L572.0 435.5 L586.0 439.1 L600.0 441.8" stroke="url(#g1)" stroke-width="1.2" fill="none" opacity="0.19"/><circle cx="600.0" cy="441.8" r="2.5" fill="#97F1F4" opacity="0.44"/><path d="M40.0 260.0 L54.0 261.3 L68.0 263.2 L82.0 265.5 L96.0 268.0 L110.0 270.7 L124.0 273.5 L138.0 276.2 L152.0 278.8 L166.0 281.2 L180.0 283.4 L194.0 285.4 L208.0 287.2 L222.0 288.8 L236.0 290.3 L250.0 291.6 L264.0 293.0 L278.0 294.5 L292.0 296.1 L306.0 298.1 L320.0 300.6 L334.0 303.5 L348.0 307.1 L362.0 311.5 L376.0 316.6 L390.0 322.6 L404.0 329.4 L418.0 337.2 L432.0 345.7 L446.0 355.0 L460.0 365.1 L474.0 375.7 L488.0 386.7 L502.0 398.1 L516.0 409.6 L530.0 421.0 L544.0 432.2 L558.0 442.9 L572.0 453.1 L586.0 462.6 L600.0 471.2" stroke="url(#g2)" stroke-width="2.2" fill="none" opacity="0.18"/><circle cx="600.0" cy="471.2" r="4" fill="#D392EB" opacity="0.43"/><path d="M40.0 260.0 L54.0 261.3 L68.0 263.3 L82.0 265.7 L96.0 268.5 L110.0 271.6 L124.0 274.7 L138.0 277.9 L152.0 280.9 L166.0 283.9 L180.0 286.6 L194.0 289.1 L208.0 291.4 L222.0 293.4 L236.0 295.2 L250.0 296.9 L264.0 298.5 L278.0 300.1 L292.0 301.8 L306.0 303.8 L320.0 306.2 L334.0 309.0 L348.0 312.4 L362.0 316.5 L376.0 321.5 L390.0 327.2 L404.0 333.9 L418.0 341.6 L432.0 350.1 L446.0 359.6 L460.0 369.9 L474.0 380.9 L488.0 392.5 L502.0 404.6 L516.0 417.0 L530.0 429.5 L544.0 442.0 L558.0 454.1 L572.0 465.8 L586.0 476.9 L600.0 487.2" stroke="url(#g1)" stroke-width="1.2" fill="none" opacity="0.18"/><circle cx="600.0" cy="487.2" r="2.5" fill="#97F1F4" opacity="0.43"/>
  <circle cx="40" cy="260" r="7" fill="#97F1F4"/>
</svg>